/* XPM */
static char *a724c28a4ff34f01e4e3aa07af0ce388[] = {
/* columns rows colors chars-per-pixel */
"16 16 219 2 ",
"   c #000069",
".  c #00006A",
"X  c #00046B",
"o  c #00006C",
"O  c #00046C",
"+  c #00096B",
"@  c #040B6C",
"#  c #000073",
"$  c #000076",
"%  c #000077",
"&  c #050D73",
"*  c #020977",
"=  c #00007A",
"-  c #00057B",
";  c #040C78",
":  c #060E7B",
">  c #081172",
",  c #081176",
"<  c #081178",
"1  c #081179",
"2  c #08107A",
"3  c #08107B",
"4  c #08107D",
"5  c #08107F",
"6  c #08117F",
"7  c #000081",
"8  c #000181",
"9  c #000083",
"0  c #030782",
"q  c #000385",
"w  c #000086",
"e  c #050C83",
"r  c #070F82",
"t  c #070F83",
"y  c #060985",
"u  c #060887",
"i  c #040B87",
"p  c #070F85",
"a  c #070F86",
"s  c #070E87",
"d  c #080F80",
"f  c #080F81",
"g  c #000088",
"h  c #00008B",
"j  c #00008F",
"k  c #00058D",
"l  c #070D89",
"z  c #070E88",
"x  c #070D8A",
"c  c #060D8B",
"v  c #070E8A",
"b  c #070D8C",
"n  c #070D8E",
"m  c #070D8F",
"M  c #070E8F",
"N  c #080F8E",
"B  c #071081",
"V  c #081081",
"C  c #081083",
"Z  c #091088",
"A  c #151687",
"S  c #16168A",
"D  c #000090",
"F  c #030292",
"G  c #010592",
"H  c #040790",
"J  c #000094",
"K  c #030797",
"L  c #050B93",
"P  c #070C90",
"I  c #070D90",
"U  c #070C92",
"Y  c #070C93",
"T  c #070B97",
"R  c #070C94",
"E  c #070C95",
"W  c #070C97",
"Q  c #090E92",
"!  c #000098",
"~  c #000099",
"^  c #010299",
"/  c #00009E",
"(  c #00019F",
")  c #070B99",
"_  c #070B9B",
"`  c #070D98",
"'  c #070C9B",
"]  c #070A9C",
"[  c #070B9C",
"{  c #070A9D",
"}  c #04089E",
"|  c #070A9E",
" . c #070A9F",
".. c #070C9D",
"X. c #1A1A94",
"o. c #14179B",
"O. c #1D1F9C",
"+. c #1D228A",
"@. c #242B8B",
"#. c #222395",
"$. c #202197",
"%. c #20239B",
"&. c #262A9B",
"*. c #2E3294",
"=. c #313492",
"-. c #393A92",
";. c #0001A0",
":. c #0000A2",
">. c #0102A3",
",. c #0001A4",
"<. c #0203A4",
"1. c #0205A5",
"2. c #0709A1",
"3. c #070AA1",
"4. c #0709A2",
"5. c #070AA3",
"6. c #0509A5",
"7. c #0709A4",
"8. c #0709A5",
"9. c #0609A6",
"0. c #0305A8",
"q. c #0607AD",
"w. c #0607AE",
"e. c #0607AF",
"r. c #0608A8",
"t. c #0609A8",
"y. c #070BA9",
"u. c #0608AA",
"i. c #0608AB",
"p. c #0608AC",
"a. c #0709AC",
"s. c #0608AD",
"d. c #0608AE",
"f. c #1D1FAB",
"g. c #0607B0",
"h. c #0607B1",
"j. c #0607B2",
"k. c #0606B3",
"l. c #0607B3",
"z. c #0606B4",
"x. c #2526A2",
"c. c #3031A6",
"v. c #3B3CA7",
"b. c #2B2DB3",
"n. c #3A39B1",
"m. c #3B3CB0",
"M. c #394094",
"N. c #45489F",
"B. c #495097",
"V. c #474BA5",
"C. c #4546A8",
"Z. c #4445AB",
"A. c #464AAB",
"S. c #565AAD",
"D. c #5252BE",
"F. c #595BB8",
"G. c #5E62A7",
"H. c #5D61B3",
"J. c #6165AD",
"K. c #6264B6",
"L. c #6062BF",
"P. c #777AB3",
"I. c #6A6AC0",
"U. c #6B6CC7",
"Y. c #6F70C8",
"T. c #7374C3",
"R. c #7475C3",
"E. c #7577CC",
"W. c #7D7FCA",
"Q. c #898CBD",
"!. c #8285C4",
"~. c #8387C5",
"^. c #878AC6",
"/. c #888BC4",
"(. c #8C8EC4",
"). c #8182C8",
"_. c #9497C3",
"`. c #9D9FCB",
"'. c #8E8FD2",
"]. c #999AD6",
"[. c #9B9DD7",
"{. c #9D9ED9",
"}. c #9EA0D3",
"|. c #9FA1DB",
" X c #A0A2CF",
".X c #A1A3D5",
"XX c #A0A1D7",
"oX c #ABAED7",
"OX c #A4A6DA",
"+X c #ABAEDA",
"@X c #ACACDA",
"#X c #B3B5DB",
"$X c #B9BADE",
"%X c #ABACE0",
"&X c #B0B2E1",
"*X c #B8BAE0",
"=X c #BCBEE0",
"-X c #BEC1E5",
";X c #C1C2E1",
":X c #C2C4E2",
">X c #C2C2E6",
",X c #C7C9E3",
"<X c #C5C8E5",
"1X c #CBCDE7",
"2X c #C3C4E9",
"3X c #CACCE8",
"4X c #CFD1EB",
"5X c #D2D3ED",
"6X c #D4D5ED",
"7X c #D8D9EC",
"8X c #D8D9F0",
"9X c #E1E3F3",
"0X c #E3E4F0",
"qX c #E4E5F1",
"wX c #E6E8F6",
"eX c #EFEFF6",
"rX c #FBFCFF",
"tX c gray100",
"yX c None",
/* pixels */
"yXyXW W M M l l d 5 6 2 , > yXyX",
"yX[ ) Y Y M l i d d 6 * . . + yX",
"2.[ ) ` Y g q q 9 $ - @.G.P.B.@ ",
"2.[ ..K g v.[.<X:X^.+.=.qXeXQ.X ",
"8.2.[ D I.6X.XK.!.^.*.N.tX0X_.O ",
"8.8.~ m.8X).O.k i A V.,X`.-.M.& ",
"r.8.~ |.[.o.R.+X#.S :XtXJ.. ; < ",
"r.1.;.2XL.W.4X9X=X$X7XoX(.$ ; < ",
"a.0.;.%X>XwXT.Z.=X3XH.~. X$ 6 2 ",
"w.r./ E.tX'.D 9 %.&.A.3XS.= f 4 ",
"g.w.<.b.Y.n.c.x.X.Z.*X#Xy 0 C V ",
"g.w.a.;.! D.&XOXXX6X@X$.9 Z p f ",
"z.g.a.w.<.f.U.{.].F.H g N p l f ",
"z.g.g.r.r.;.~ ! j D G I N l l p ",
"yXz.g.a.a.8.8.3...' R R P N l yX",
"yXyXz.g.r.y.8.8.] ] ) R U I yXyX"
};
