/* XPM */
static char *_f67b8a8c999412e8071e6a271696dca[] = {
/* columns rows colors chars-per-pixel */
"32 32 133 2 ",
"   c #02036D",
".  c #050D6F",
"X  c #08086D",
"o  c #010274",
"O  c #030B75",
"+  c #0B0B76",
"@  c #01027C",
"#  c #040B7B",
"$  c #0B0E7E",
"%  c #071172",
"&  c #081174",
"*  c #071178",
"=  c #08107C",
"-  c #13127C",
";  c #181D7D",
":  c #000184",
">  c #060E85",
",  c #080F81",
"<  c #01018C",
"1  c #070D8B",
"2  c #090D8D",
"3  c #071083",
"4  c #081080",
"5  c #131485",
"6  c #14148C",
"7  c #010293",
"8  c #070C93",
"9  c #080C97",
"0  c #01019C",
"q  c #070A9B",
"w  c #0A0B9C",
"e  c #0F1191",
"r  c #141493",
"t  c #1C1D93",
"y  c #15159C",
"u  c #222284",
"i  c #272F85",
"p  c #22258C",
"a  c #31378C",
"s  c #2A2A93",
"d  c #22239C",
"f  c #2F3197",
"g  c #313493",
"h  c #33359C",
"j  c #0304A3",
"k  c #0709A4",
"l  c #0A09A4",
"z  c #0607AF",
"x  c #0608AA",
"c  c #1213A0",
"v  c #1B1BA4",
"b  c #0607B2",
"n  c #1F21A5",
"m  c #2626A3",
"M  c #2C2DA4",
"N  c #2B2BAE",
"B  c #2D30AD",
"V  c #3333A4",
"C  c #3A3BA5",
"Z  c #3739AE",
"A  c #3B3DAE",
"S  c #3334B3",
"D  c #3F429F",
"F  c #3E41B2",
"G  c #41449D",
"H  c #45499B",
"J  c #4F559D",
"K  c #4243A7",
"L  c #434AA5",
"P  c #4C4DA5",
"I  c #4242AF",
"U  c #494BAE",
"Y  c #5050AF",
"T  c #5B5EAE",
"R  c #4244B4",
"E  c #4F4EB4",
"W  c #4546B8",
"Q  c #5454B3",
"!  c #5858B6",
"~  c #5454BC",
"^  c #5F62A8",
"/  c #6466AF",
"(  c #6569B4",
")  c #6D6FB7",
"_  c #6B6CB9",
"`  c #7779B7",
"'  c #7271BB",
"]  c #5C5EC3",
"[  c #6969C2",
"{  c #7677CB",
"}  c #7B7BC9",
"|  c #8286B8",
" . c #8B8FBE",
".. c #8D91BE",
"X. c #8384C4",
"o. c #8B8CC2",
"O. c #8584CC",
"+. c #8A8BCB",
"@. c #8F92C9",
"#. c #979AC5",
"$. c #9393CB",
"%. c #9798CB",
"&. c #9B9CCE",
"*. c #8889D2",
"=. c #9697D0",
"-. c #9D9DD7",
";. c #A6A6CE",
":. c #A2A2D3",
">. c #AAACD5",
",. c #A6A7D9",
"<. c #A6A8DD",
"1. c #ACADDB",
"2. c #B2B2DA",
"3. c #B9BBDC",
"4. c #B2B3E0",
"5. c #BCBDE4",
"6. c #BEC0E2",
"7. c #C4C5E5",
"8. c #CCCDE6",
"9. c #CDCEE9",
"0. c #CFD0ED",
"q. c #D1D3E6",
"w. c #D3D3EC",
"e. c #DDDEEF",
"r. c #DCDCF1",
"t. c #E4E5F3",
"y. c #E6E8F4",
"u. c #EBEBF6",
"i. c #EDEDF9",
"p. c #F4F4FA",
"a. c #F8F7FC",
"s. c #FEFEFE",
"d. c None",
/* pixels */
"d.d.d.d.d.d.d.d.d.d.d.d.d.d.d.d.d.d.d.d.d.d.d.d.d.d.d.d.d.d.d.d.",
"d.d.d.d.d.d.8 8 1 8 2 2 1 1 3 > 3 3 4 4 = = = * * * d.d.d.d.d.d.",
"d.d.d.d.9 q 8 8 8 1 8 1 1 1 > > > 3 , , = = = * * & & % d.d.d.d.",
"d.d.d.q q 9 8 8 8 8 2 2 2 1 1 > > > , 4 # = = = * * & % & d.d.d.",
"d.d.k q q 8 8 9 8 8 8 2 1 1 1 1 1 3 3 3 $ = = = O .     . % d.d.",
"d.k q q q q 8 q 8 8 8 2 1 < > > : > 3 3 3 3 # + - ; a J i . & d.",
"d.k q w 9 q 9 q 8 8 8 < : 2 5 6 5 - @ : # @ p  .3.q.u.a.| X % d.",
"d.k k k q q q q 8 8 < 6 C X.2.7.6.&.T p # @ g 8.s.s.s.s...X % % ",
"d.k k q q k q 9 9 < V :.p.s.s.p.a.s.s.8.D o o H t.s.s.s. .X % % ",
"d.k k k q q w 7 7 E r.s.u.6.X._ ' :.e.t.T o + ` p.a.a.s.#.X & & ",
"d.k k q q k q 7 I t.s.7.Q r : < : 2 h L 5 o / u.s.;. .t.#.X % % ",
"d.k k k k q 0 d 7.s.5.M : : : : < : : @ o P e.s.3.u X ^ H . % & ",
"d.x k k k k q [ s.r.A : < V U e : 2 1 @ h 8.s.u.G o o o O * * * ",
"d.x k x k 0 c 7.s.+.7 : C 7.u.X.6 @ @ t 2.s.s.u.G o # # # * * * ",
"d.x k k k 0 N i.u.R : d 4.s.s.a.+.5 5 @.s.p.u.a.| $ # 4 $ * * & ",
"d.x x k k 0 A s.r.y e -.s.i.w.a.a.$.X.i.a.+.@.a.;.5 # $ = = = * ",
"d.x x k x 0 W s.w.n } a.s.X.h =.s.s.p.s.:.5 ) s.>.5 # , = = = = ",
"d.x x x k j S a.u.-.i.s.,.y : y =.s.s.7.s o &.s.$.- @ $ = = = = ",
"d.z x x x 0 n 0.s.a.s.5.m < 8 < r +.5.U o t 9.s.( # > > 3 = = = ",
"d.x x x x j l *.s.s.9.Z 7 q 9 8 < r d : : ) p.y.f @ > > # $ = = ",
"d.b z x x x 0 S y.r.~ < 7 0 7 q 8 < : : K w.s.o.> > 3 3 4 , = = ",
"d.b z x x x j k ] ] 0 q c q 7 7 7 < 2 Y 8.s.7.s : > 1 4 3 , 4 4 ",
"d.z z z x x x j j 0 w { 5.} A M M Q -.t.s.9.C : 1 > 1 > > 4 , , ",
"d.z z z x x x x k 0 v <.s.a.t.e.e.i.s.s.1.h : 1 1 1 > 1 3 > , = ",
"d.b b b z z x k k x 0 N O.9.i.s.a.t.1.! r < 8 1 1 1 > 1 > > 3 3 ",
"d.b b b z z x x x k x 0 w v B A Z m r 7 < 2 8 8 2 1 1 > > > 3 3 ",
"d.b b b z z z x x k x k k 0 0 0 7 7 8 8 8 8 1 2 2 2 2 1 1 3 3 d.",
"d.b b b z z z x x x k k k w q q q q 9 9 8 8 8 8 2 2 1 1 1 > > d.",
"d.d.b b z z z z x x x k k k k q q q q q 8 8 8 8 2 1 1 1 > > d.d.",
"d.d.d.b z b z z x x x k k k k q k q q 8 8 9 9 8 8 8 1 1 1 d.d.d.",
"d.d.d.d.b b z z x x x k k k k k k q q q 8 q 8 9 8 2 8 1 d.d.d.d.",
"d.d.d.d.d.d.z z x x x x x k k k w k q q q q 9 8 8 8 d.d.d.d.d.d."
};
