/* XPM */
static char *_ae97ff56c1b4605f1936e6b04fc4961[] = {
/* columns rows colors chars-per-pixel */
"64 64 163 2 ",
"   c #00036F",
".  c #010A6F",
"X  c #000375",
"o  c #020B71",
"O  c #00037C",
"+  c #040B7C",
"@  c #080F7F",
"#  c #071075",
"$  c #081174",
"%  c #071178",
"&  c #08107C",
"*  c #151C7B",
"=  c #000285",
"-  c #070E84",
";  c #080F81",
":  c #00018C",
">  c #070D8C",
",  c #0B0F88",
"<  c #0A1281",
"1  c #0F128D",
"2  c #111584",
"3  c #131B81",
"4  c #1A1E87",
"5  c #151A8D",
"6  c #1B1F8F",
"7  c #000193",
"8  c #070C94",
"9  c #0B0E95",
"0  c #01029B",
"q  c #070B9B",
"w  c #0A0B9A",
"e  c #0E1191",
"r  c #0E1098",
"t  c #111494",
"y  c #161A90",
"u  c #191F91",
"i  c #141699",
"p  c #171998",
"a  c #1C1E9A",
"s  c #1D228E",
"d  c #1E219B",
"f  c #242C84",
"g  c #262B8A",
"h  c #292D8F",
"j  c #2D348A",
"k  c #33398D",
"l  c #212494",
"z  c #262A96",
"x  c #2A2D9C",
"c  c #2F319F",
"v  c #313595",
"b  c #3C3F93",
"n  c #31359C",
"m  c #363999",
"M  c #0204A1",
"N  c #0709A4",
"B  c #0C0EA0",
"V  c #0607AE",
"C  c #0608AA",
"Z  c #1214A3",
"A  c #1618A2",
"S  c #1A1DA5",
"D  c #1B1DAA",
"F  c #0607B2",
"G  c #1F20A8",
"H  c #2426A5",
"J  c #2A2CA3",
"K  c #2526AC",
"L  c #2B2CAB",
"P  c #3436A7",
"I  c #3539A6",
"U  c #3A3BA2",
"Y  c #3233AB",
"T  c #3738AE",
"R  c #3C3EAA",
"E  c #2C2EB1",
"W  c #3B3CB6",
"Q  c #3D419C",
"!  c #3F42A5",
"~  c #42459B",
"^  c #464B9B",
"/  c #4E539F",
"(  c #474AA6",
")  c #4C4EA5",
"_  c #4546AA",
"`  c #4A4CAD",
"'  c #4E52AE",
"]  c #5153A6",
"[  c #5155AB",
"{  c #595EAD",
"}  c #4244B4",
"|  c #4748B6",
" . c #4B4CB4",
".. c #5255B0",
"X. c #565AB3",
"o. c #5B5DB4",
"O. c #5456BB",
"+. c #5A5BBC",
"@. c #5E62AF",
"#. c #5D60B5",
"$. c #666AAE",
"%. c #6A6FAD",
"&. c #6063B0",
"*. c #6569B5",
"=. c #6061BA",
"-. c #676ABD",
";. c #767AB6",
":. c #7174BC",
">. c #7679BE",
",. c #5E5FC0",
"<. c #6365C3",
"1. c #6769C0",
"2. c #6C6DC0",
"3. c #7273C4",
"4. c #7678C6",
"5. c #797BC5",
"6. c #7C7DCE",
"7. c #7C80C1",
"8. c #8689C2",
"9. c #8A8CC7",
"0. c #8485CA",
"q. c #8B8CCD",
"w. c #9598C6",
"e. c #989ACD",
"r. c #8586D0",
"t. c #8C8DD2",
"y. c #9293D3",
"u. c #9A9CD3",
"i. c #9FA1D2",
"p. c #A3A4D2",
"a. c #ABADD5",
"s. c #ADAEDC",
"d. c #AFB0DF",
"f. c #B4B6D7",
"g. c #B2B4DC",
"h. c #B7B8DC",
"j. c #BBBDDD",
"k. c #ABABE0",
"l. c #B1B1E0",
"z. c #B7B8E2",
"x. c #BCBDE3",
"c. c #BEC1DD",
"v. c #BFC0E7",
"b. c #C2C4DC",
"n. c #C3C5E4",
"m. c #C7C9E3",
"M. c #CACCE6",
"N. c #C3C4E8",
"B. c #CBCCEA",
"V. c #D4D5EC",
"C. c #D7D8ED",
"Z. c #DBDCEE",
"A. c #DDDEF1",
"S. c #DFE1F1",
"D. c #E4E4F2",
"F. c #E7E8F5",
"G. c #ECECF6",
"H. c #EDEDF8",
"J. c #F1F1F7",
"K. c #F4F5FA",
"L. c #F7F8FC",
"P. c #FFFFFF",
"I. c None",
/* pixels */
"I.I.I.I.I.I.I.I.I.I.I.I.I.I.I.I.I.I.I.I.I.I.I.I.I.I.I.I.I.I.I.I.I.I.I.I.I.I.I.I.I.I.I.I.I.I.I.I.I.I.I.I.I.I.I.I.I.I.I.I.I.I.I.I.",
"I.I.I.I.I.I.I.I.I.I.I.I.I.I.I.I.I.I.> 8 > > > > > > - > - - - - - - ; ; < @ @ @ & & & % & % I.I.I.I.I.I.I.I.I.I.I.I.I.I.I.I.I.I.",
"I.I.I.I.I.I.I.I.I.I.I.I.8 8 8 8 > 8 > > > > > > > > > - - - - - - - < ; ; @ @ & & & & & & % % $ & $ $ $ I.I.I.I.I.I.I.I.I.I.I.I.",
"I.I.I.I.I.I.I.I.I.I.8 w 8 8 8 8 8 8 8 8 e > 8 > > , > , > > - - - < - < ; ; @ < ; & & & % & % & $ % $ $ $ $ I.I.I.I.I.I.I.I.I.I.",
"I.I.I.I.I.I.I.I.8 q q 8 8 8 8 8 8 > 8 > > 8 > > > > > - , - - , - - - - ; ; ; ; & & ; & & & % % & $ & $ $ $ $ $ I.I.I.I.I.I.I.I.",
"I.I.I.I.I.I.I.q q 8 q 8 8 8 8 8 8 8 > 8 8 > > 8 > > > > > > - - - - ; < ; ; ; ; ; & & & & & & % $ & $ $ $ $ $ $ $ I.I.I.I.I.I.I.",
"I.I.I.I.I.I.q q q q 8 q 8 8 8 8 8 > 8 8 > 8 > > > > > - - - - > - - - - - ; ; ; ; & & & & % % % & & $ $ $ $ % $ $ $ I.I.I.I.I.I.",
"I.I.I.I.I.q q q q 8 w w w w 8 8 8 8 8 > 8 > > 8 > > > > > > > - > - - - ; ; ; ; ; ; & & & & & & & $ $ & $ $ $ $ $ $ $ I.I.I.I.I.",
"I.I.I.I.q N q q q q 8 q 8 8 q 8 8 8 8 8 > 8 > > > > > > > - > - - - - - ; ; - ; ; ; @ & @ & & % & % % % $ $ $ $ $ $ $ $ I.I.I.I.",
"I.I.I.N q q q q q q q q q 8 8 8 8 8 8 8 8 > 8 > 8 > > > > > > - > - - - - ; ; ; ; ; & @ & & & & % & % $ $ $ . . $ $ $ $ $ I.I.I.",
"I.I.I.q N q N w q q q w q q q 8 8 8 8 8 8 8 > > > > > > > > - > - > - - - - - ; ; ; ; < @ @ & & # o       o * j * $ $ $ $ I.I.I.",
"I.I.N N q N q q q q 8 q 8 8 q 8 8 8 8 8 8 > 8 8 > 8 > > , > > > > - - > - - - ; ; ; ; @ @ + X o & g ^ %.w.b.Z.K.b.$ $ $ $ $ I.I.",
"I.I.N N q N q q q q q q q 8 8 q 8 8 8 8 8 8 8 > 8 8 > > > - = : - - - - - - - - ; ; @ ; + < ;.f.C.G.P.P.P.P.P.P.L.f . $ $ $ I.I.",
"I.I.N q N q N q q q q q q q q 8 8 w q 8 8 > 8 8 > > = : : y l z l 1 - = O = - < - ; ; ; X $.P.P.P.P.P.P.P.P.P.P.J.f . $ $ $ I.I.",
"I.N N N q N N q q N w q q q q 8 8 8 8 8 8 8 8 : = d #.u.M.A.G.G.G.Z.m.e.{ 6 O O - - ; ; O Q L.P.P.P.P.P.P.P.P.P.J.f . $ $ $ $ I.",
"I.N N N N N q N q q q q q 8 q q w w 8 8 9 : : I u.F.P.P.P.P.P.P.P.P.P.P.P.D.e.n + - ; ; < O ^ D.P.P.P.P.P.P.P.P.J.j . $ $ $ $ I.",
"I.N N N N q N q q q N q q w q q 8 8 w 8 : a u.L.P.P.P.P.P.P.P.P.P.P.P.P.P.P.P.J.[ O ; ; ; ; X g Z.P.P.P.P.P.P.P.K.j . % $ $ $ I.",
"I.N N N N N q N N q q q q q q w q q 8 :  .D.P.P.P.P.P.P.P.P.P.P.P.P.P.P.P.P.P.P.j.+ - - ; ; X ~ G.P.P.P.P.P.P.P.L.j   % $ $ $ I.",
"I.N N N N B N N N q N q q q q w 8 8 7 -.L.P.P.P.P.P.P.C.i.:.X.' { :.i.Z.P.P.P.P.p.= ; ; ; O h F.P.P.P.P.P.P.P.P.L.k . # $ $ $ I.",
"I.N N N N N q N w N q q q q q w q 7 3.P.P.P.P.P.P.s._ e : = = = = = = 1 ) g.D.v.z + - - O 2 M.P.P.P.P.L.K.P.P.P.P.k o # % $ $ I.",
"I.N N C N N N q q N q q N q q q 7 +.P.P.P.P.P.C.` : : > 9 > 8 > > > > - = = s - = - - ; O a.P.P.P.P.P.$.~ S.P.P.P.b X $ $ $ $ I.",
"I.C N N N N N N N N q N q q q 7 J H.P.P.P.P.g.i : 8 8 8 8 > > > > > > > > > = ; - - - O 8.P.P.P.P.P.w.X   g b.P.K.j o $ % $ $ I.",
"I.C N N N N N N N q N q q q q 0 z.P.P.P.P.d.8 7 8 8 > 8 8 > 8 > > > > > > - , - - - O @.P.P.P.P.P.h.& + @ X 3 ;./ o % $ % $ $ I.",
"I.C C N N N N N N q N N q N 7 O.P.P.P.P.B.r 7 8 8 8 8 8 7 > > 8 > > > > > > > - > O ! J.P.P.P.P.C.4 X @ @ & + o X & $ % % % % I.",
"I.N C N N C N N N q N q q q q N.P.P.P.K.P 7 8 8 8 8 : t J e : > 8 > > > > > > > = l A.P.P.P.P.J.b O ; & ; & & & & & % % % $ $ I.",
"I.C N C N N N N N N N N q 0 W P.P.P.P.t.7 q q 8 8 7 P V.K.x.d = 8 > > > > > , = , b.P.P.P.P.P.K.v O ; ; & ; & & & & & % % $ $ I.",
"I.C C C C N N N N q N q N 0 t.P.P.P.J.H 7 8 8 w 7 d Z.P.P.P.V.x : > > > > > > = i.P.P.P.P.P.P.P.8.O ; ; ; & & & & % % & % % % I.",
"I.C C N N C N C N N N N q N B.P.P.P.s.7 q q w 7 r n.P.P.P.P.P.D.U = 8 > > - = >.P.P.P.P.P.P.P.P.n.+ ; ; & ; ; & & & & # % % $ I.",
"I.C C N C C N N N N N N 0 K J.P.P.P.<.7 q q 8 7 k.P.P.P.P.P.P.P.H._ = > > = [ P.P.P.P.P.K.P.P.P.G.6 ; ; ; ; & & & & & $ % % & I.",
"I.C C C C N N C N N N N 0 } P.P.P.L.T 7 q q 7 r.P.P.P.P.P.P.P.P.P.K...= = J G.P.P.P.P.Z.&.K.P.P.P.b O ; ; & ; & & & & & & % & I.",
"I.C C C C C N N N N N N 0 ,.P.P.P.H.S 0 q 7 -.P.P.P.P.P.G.P.P.P.P.P.L.o.y V.P.P.P.P.K.U 5 K.P.P.P.] O ; ; ; ; & & & & & & $ $ I.",
"I.C C C C N C N N N N N 0 <.P.P.P.D.Z q 7  .L.P.P.P.P.Z.J 0.P.P.P.P.P.K.C.P.P.P.P.P.*.O u G.P.P.P.{ O ; ; ; ; ; < & & & & & & I.",
"I.C F C C N C N C M N N 0 <.P.P.P.D.A 7 Y G.P.P.P.P.J.T : 7 5.P.P.P.P.P.P.P.P.P.P.9.= = u G.P.P.P.{ O ; ; ; @ - @ & @ % & & % I.",
"I.C C C C C C C N C N N M O.P.P.P.K.S Z V.P.P.P.P.P.O.: 8 8 : -.L.P.P.P.P.P.P.P.g.> - = x K.P.P.P.) O ; - ; < & & @ - & & & & I.",
"I.V C C C C C N C N N N M W P.P.P.L. .l.P.P.P.P.P.5.7 8 q 8 8 : o.K.P.P.P.P.P.V.y = - = ( P.P.P.P.m = ; - ; ; ; @ & < & & & & I.",
"I.V C C C C C C C C C N M D H.P.P.P.D.P.P.P.P.P.u.7 q 8 q 8 8 8 :  .J.P.P.P.G.c : > , = 7.P.P.P.D.5 = ; - - ; ; ; & & & & & & I.",
"I.V V C C C C C N N N N M M x.P.P.P.P.P.P.P.P.z.q 0 q 8 q 8 8 8 8 : R A.P.G.' = 8 > > : n.P.P.P.h.= - - - - ; ; ; @ @ < & & & I.",
"I.V C V F C C C C C C C N 0 6.P.P.P.P.P.P.P.V.Z 7 q q q 8 q 8 q w 8 : a X.J : > > > = ! P.P.P.P.>.O - - - - < - ; ; @ & @ & & I.",
"I.V V V C C C C C N N C C M E K.P.P.P.P.P.G.L 0 q q w 8 q 8 8 8 8 8 8 > : : 8 > 8 > = g.P.P.P.K.z = - - - - < ; ; ; @ & @ & & I.",
"I.V V V C C C C C C C N M C M k.P.P.P.P.L.} 7 q q w q q 8 q q q 8 8 8 8 8 8 > 8 > = #.P.P.P.P.p.= ; - - - - - ; ; ; @ @ @ @ @ I.",
"I.F V V V C C C C C N N N C M W L.P.P.P.<.0 q q q q q q q 8 8 8 w 8 8 8 8 > 8 8 = c G.P.P.P.K.n = > , - - - < - ; ; ; @ @ < @ I.",
"I.V F V V V C V C C C C C N M M y.P.P.r.0 q q N q q N w q q q 8 w 8 8 8 8 8 8 = x C.P.P.P.P.9.= - - > - > - - - - ; ; ; @ & @ I.",
"I.F V V V V V V C C C N C N N M Z t.6.N N q N 0 0 0 q q w 8 q q q 8 8 q 8 7 : _ S.P.P.P.P.B.1 - , > - > - - - - - ; ; ; ; @ & I.",
"I.F F V V V V V V C C C N C C N C 0 M M N N 0 B Y Z 7 0 q q q 8 8 w 8 : : p 0.K.P.P.P.P.D.x = > > , > - > - - - - ; - < ; < & I.",
"I.F F F V V V V V C C C C C C N N N N N N M D n.L.A.0.Y r 7 7 7 7 7 r P 0.D.P.P.P.P.P.G._ = 8 > > > - > > - - - - ; - ; ; @ @ I.",
"I.F F V V V V V C V C C C C N N C N N N q 0 t.P.P.P.P.L.V.s.y.r.y.s.C.L.P.P.P.P.P.P.C.U = > > > > > > - - - - - - - - ; ; ; @ I.",
"I.F F F V V V V V C C C C N C C N N N N N 0 t.P.P.P.P.P.P.P.P.P.P.P.P.P.P.P.P.P.P.s.a : 8 8 > > > > > - - > - > - - ; - ; ; < I.",
"I.F F V F V V V V C V C C C N C N C N N N M K B.P.P.P.P.P.P.P.P.P.P.P.P.P.P.P.C.o.8 : > > > > > > > > > > > - - - - - - ; ; < I.",
"I.F F F F F F F F F C C C C C N C N N N N N 0 Z <.x.K.P.P.P.P.P.P.P.P.P.J.v.=.9 : > 8 8 8 > 8 > > > > > - - - - - > - - < - - I.",
"I.F F F F F F F F F V V V C C C N C C N N N N M 0 0 L ,.t.s.N.B.n.s.t.o.J 7 7 8 8 8 8 > > 8 > > > > , > > > > - - - - - - < < I.",
"I.F F F F F F F F V V V C C C C C N C N N N N N N N 0 0 0 0 q 0 0 7 7 7 7 8 8 8 8 8 8 8 8 8 > > > > > > - > - > - - - - - - < I.",
"I.I.F F F F F F V V V V V V C N C C N N N N N N q N q N q q q w q w q w q 8 q 8 8 8 8 8 8 > 8 > 8 > > > > > > - , > - - - < I.I.",
"I.I.F F F F F F V V V V C C C C C C N C C N N N N N N N q q q N q w w q 8 q 8 8 8 8 8 8 8 8 > 8 > > > > > > > > > - - - - < I.I.",
"I.I.F F F F F F F V V V V C C C C N C N N N N N N N q N q N q q q q q q q 8 q 8 8 8 8 8 8 > 8 > > 8 > > > > > , - > , - - - I.I.",
"I.I.I.F F F F F F V V V V C C C C C C N C N C N N N q q N q N N q q q q 8 q q 8 w 8 8 8 8 8 8 8 8 8 > 8 > > > - > - > - - I.I.I.",
"I.I.I.F F F F F F V V V V V V C C C C C C N N N N N N N N q q q q q q q q q q 8 q 9 8 8 8 > 8 > > > > > > > > > > > - - > I.I.I.",
"I.I.I.I.F F F F F F F V V V V C V C C C C N N N N N N N N N q N q q q q q q q 8 8 w 8 8 8 8 > 8 > 8 > 8 > > > > > - - - I.I.I.I.",
"I.I.I.I.I.F F F F F V F V V V V C C C C N C C N N N N N q q N q q N q q q w q q q 8 8 8 8 8 8 8 8 > 8 > > > > > > > > I.I.I.I.I.",
"I.I.I.I.I.I.F F F F F V V V V C V C C C C N C N N N N w N N q N q q N q q q 8 q q 8 8 8 8 8 8 8 8 > 8 > 9 > > > > , I.I.I.I.I.I.",
"I.I.I.I.I.I.I.F F F F F F V V V C V C C C C N C N N N N N N N q N q q q q q q q q 8 q q q 8 8 8 8 8 > 8 > 8 > > > I.I.I.I.I.I.I.",
"I.I.I.I.I.I.I.I.F F F F V V V V C C C C C C C N N N C N N q N N q N q q q q q q q 8 8 8 w 9 8 8 8 > > 8 8 > > > I.I.I.I.I.I.I.I.",
"I.I.I.I.I.I.I.I.I.F F F F V F V F C C C C C C C C N N N N N N q N q N q q q q q q q q 8 8 8 8 8 8 8 > 8 > 8 > I.I.I.I.I.I.I.I.I.",
"I.I.I.I.I.I.I.I.I.I.I.I.F V V V F C C C C N C N N C N N N N N N N q q N q q q q q 8 8 q w 8 8 8 8 8 > 9 I.I.I.I.I.I.I.I.I.I.I.I.",
"I.I.I.I.I.I.I.I.I.I.I.I.I.I.I.I.F C V C C C C C C N N C N N N q N N q N q q q q q q q 8 q 8 8 8 I.I.I.I.I.I.I.I.I.I.I.I.I.I.I.I."
};
